<svg xmlns="http://www.w3.org/2000/svg" version="1.1" xmlns:xlink="http://www.w3.org/1999/xlink" xmlns:svgjs="http://svgjs.dev/svgjs" width="1000" height="257" viewBox="0 0 1000 257"><g transform="matrix(1,0,0,1,-0.6060606060606233,0.6055562991630836)"><svg viewBox="0 0 396 102" data-background-color="#ffffff" preserveAspectRatio="xMidYMid meet" height="257" width="1000" xmlns="http://www.w3.org/2000/svg" xmlns:xlink="http://www.w3.org/1999/xlink"><g id="tight-bounds" transform="matrix(1,0,0,1,0.2400000000000091,-0.24033474939534472)"><svg viewBox="0 0 395.52 102.48067226890757" height="102.48067226890757" width="395.52"><g><svg viewBox="0 0 395.52 102.48067226890757" height="102.48067226890757" width="395.52"><g><svg viewBox="0 0 395.52 102.48067226890757" height="102.48067226890757" width="395.52"><g><svg viewBox="0 0 395.52 102.48067226890757" height="102.48067226890757" width="395.52"><g><svg viewBox="0 0 395.52 102.48067226890757" height="102.48067226890757" width="395.52"><g transform="matrix(1,0,0,1,0,0)"><svg width="395.52" viewBox="1.7599999904632568 -34.029998779296875 174.3000030517578 45.15999984741211" height="102.48067226890757" data-palette-color="#000"><path d="M15.92 0L2.05 0 1.9-2.44 4.79-3.22Q4.93-3.42 4.98-4.39 5.03-5.37 5.08-6.96 5.13-8.54 5.13-10.5L5.13-10.5 5.18-18.36Q5.18-20.21 5.13-21.78 5.08-23.34 5.03-24.37 4.98-25.39 4.83-25.59L4.83-25.59 1.76-26.22 1.9-28.66 14.31-28.66Q20.31-28.66 23.27-26.49 26.22-24.32 26.22-20.26L26.22-20.26Q26.22-17.58 24.8-15.43 23.39-13.28 20.73-12.04 18.07-10.79 14.31-10.79L14.31-10.79Q13.48-10.79 12.65-10.89 11.82-10.99 11.08-11.13L11.08-11.13 11.08-14.5Q11.62-14.26 12.45-14.09 13.28-13.92 14.31-13.92L14.31-13.92Q16.65-13.92 17.92-15.38 19.19-16.85 19.19-19.63L19.19-19.63Q19.19-22.9 17.58-24.41 15.97-25.93 13.18-25.93L13.18-25.93 11.82-25.93Q11.82-25.54 11.79-24.61 11.77-23.68 11.74-22.14 11.72-20.61 11.72-18.36L11.72-18.36 11.77-10.5Q11.77-8.54 11.84-6.96 11.91-5.37 11.99-4.42 12.06-3.47 12.11-3.27L12.11-3.27 16.06-2.54 15.92 0ZM36.23 0.39L36.23 0.39Q33.98 0.39 32.35-0.59 30.71-1.56 29.86-2.93 29-4.3 29-5.52L29-5.52Q29-7.32 30.1-8.5 31.2-9.67 33.49-10.35L33.49-10.35 41.16-12.6 41.16-14.36Q41.16-15.38 40.5-16.28 39.84-17.19 38.77-17.77 37.69-18.36 36.47-18.36L36.47-18.36Q35.69-18.36 35.37-17.99 35.06-17.63 34.96-16.55L34.96-16.55 34.71-13.57Q32.27-13.09 30.73-13.75 29.2-14.4 29.2-15.92L29.2-15.92Q29.2-16.85 30.17-17.82 31.15-18.8 32.59-19.65 34.03-20.51 35.54-21.12 37.06-21.73 38.23-21.83L38.23-21.83Q42.53-21.83 45.09-19.85 47.65-17.87 47.65-14.55L47.65-14.55 47.51-7.76Q47.51-6.4 47.58-5.64 47.65-4.88 47.9-4.39L47.9-4.39 51.07-3.81 51.07-1.76 47.9-0.34Q47.07 0 46.31 0.2 45.55 0.39 44.87 0.39L44.87 0.39Q42.97 0.39 42.19-1.56L42.19-1.56 41.35-3.81 42.38-3.56Q40.87-1.71 39.28-0.66 37.69 0.39 36.23 0.39ZM38.72-4L38.72-4Q39.4-4 40.04-4.27 40.67-4.54 41.21-5.08L41.21-5.08 41.21-9.86 37.89-9.28Q36.72-9.08 36.18-8.5 35.64-7.91 35.64-6.98L35.64-6.98Q35.64-5.81 36.55-4.91 37.45-4 38.72-4ZM66.11-6.49L62.15 0.2 53.22-18.41 50.92-19.19 51.07-21.44 63.52-21.44 63.67-19.19 60.64-18.41 66.11-6.49ZM66.99-21.44L75.83-21.44 75.97-19.19 73.68-18.41 65.13-1.56 61.27 6.54Q60 9.23 58.64 10.18 57.27 11.13 55.71 11.13L55.71 11.13Q54.05 11.13 53.1 10.33 52.14 9.52 52.14 8.35L52.14 8.35Q52.14 7.28 53 6.37 53.85 5.47 55.61 4.98L55.61 4.98 61.37 3.42 58.1 5.66 64.01-5.32 64.64-6.49 69.87-18.41 66.84-19.19 66.99-21.44ZM84.66 0.39L84.66 0.39Q82.61 0.39 80.61-0.07 78.61-0.54 77.19-1.27L77.19-1.27 76.95-7.03 80.12-7.03 81.14-3.52Q83-2.39 85-2.39L85-2.39Q86.52-2.39 87.3-3 88.08-3.61 88.08-4.64L88.08-4.64Q88.08-5.71 87.22-6.47 86.37-7.23 83.73-8.25L83.73-8.25Q80.12-9.57 78.7-11.13 77.29-12.7 77.29-15.04L77.29-15.04Q77.29-17.04 78.51-18.58 79.73-20.12 81.93-20.97 84.12-21.83 87-21.83L87-21.83Q88.57-21.83 90.18-21.53 91.79-21.24 92.86-20.75L92.86-20.75 93.4-15.09 90.28-15.09 89.2-18.55Q88.71-18.85 88.01-19.02 87.3-19.19 86.66-19.19L86.66-19.19Q85.2-19.19 84.32-18.55 83.44-17.92 83.44-16.85L83.44-16.85Q83.44-15.72 84.51-14.92 85.59-14.11 88.42-12.94L88.42-12.94Q91.64-11.62 93.01-10.13 94.38-8.64 94.38-6.45L94.38-6.45Q94.38-3.37 91.67-1.49 88.96 0.39 84.66 0.39ZM108.97 0L96.47 0 96.33-2.25 99.36-3.08Q99.4-3.61 99.48-4.96 99.55-6.3 99.6-8.06 99.65-9.81 99.65-11.47L99.65-11.47 99.65-17.63Q99.65-19.29 99.62-20.97 99.6-22.66 99.57-24.19 99.55-25.73 99.5-27 99.45-28.27 99.36-29.05L99.36-29.05 95.74-29.54 95.64-31.64 104.87-34.03 106.24-33.2Q106.19-31.69 106.09-30.27 106-28.86 105.97-27.17 105.95-25.49 105.9-23.32 105.85-21.14 105.8-18.07L105.8-18.07 105.95-18.02Q107.46-19.92 109.27-20.87 111.07-21.83 113.08-21.83L113.08-21.83Q115.18-21.83 116.84-20.8 118.5-19.78 119.45-17.8 120.4-15.82 120.4-13.04L120.4-13.04 120.4-8.01Q120.4-6.35 120.47-4.91 120.55-3.47 120.64-3.08L120.64-3.08 123.67-2.25 123.53 0 111.32 0 111.17-2.25 113.91-3.08Q114-3.56 114.05-4.35 114.1-5.13 114.13-6.1 114.15-7.08 114.15-7.96L114.15-7.96 114.15-12.06Q114.15-13.92 113.59-15.06 113.03-16.21 112.12-16.75 111.22-17.29 110.1-17.29L110.1-17.29Q108.88-17.29 107.8-16.75 106.73-16.21 105.9-15.19L105.9-15.19 105.9-8.01Q105.9-6.2 105.97-4.83 106.04-3.47 106.19-3.08L106.19-3.08 109.12-2.25 108.97 0ZM137.44 0.39L137.44 0.39Q134.02 0.39 131.43-1 128.84-2.39 127.38-4.86 125.92-7.32 125.92-10.5L125.92-10.5Q125.92-14.11 127.58-16.65 129.24-19.19 131.92-20.51 134.61-21.83 137.63-21.83L137.63-21.83Q140.91-21.83 143.37-20.46 145.84-19.09 147.23-16.63 148.62-14.16 148.62-10.99L148.62-10.99Q148.62-7.76 147.11-5.2 145.59-2.64 143.08-1.12 140.56 0.39 137.44 0.39ZM137.93-2.73L137.93-2.73Q139.15-2.73 140-3.52 140.86-4.3 141.32-5.81 141.78-7.32 141.78-9.42L141.78-9.42Q141.78-13.62 140.44-16.26 139.1-18.9 136.85-18.9L136.85-18.9Q135.05-18.9 133.95-17.02 132.85-15.14 132.85-11.91L132.85-11.91Q132.85-9.33 133.51-7.23 134.17-5.13 135.31-3.93 136.46-2.73 137.93-2.73ZM164.63 10.74L151.06 10.74 150.91 8.5 153.94 7.67Q153.94 7.37 153.99 6.45 154.04 5.52 154.09 4.2 154.14 2.88 154.18 1.27 154.23-0.34 154.23-1.95L154.23-1.95 154.33-11.67Q154.33-13.09 154.23-14.23 154.14-15.38 153.89-16.65L153.89-16.65 150.77-17.33 150.77-19.53 159.36-21.73 160.73-20.9 160.34-17.92 160.48-17.87Q161.65-19.68 163.41-20.75 165.17-21.83 167.12-21.83L167.12-21.83Q169.47-21.83 171.49-20.63 173.52-19.43 174.79-17.16 176.06-14.89 176.06-11.62L176.06-11.62Q176.06-8.45 174.59-5.71 173.13-2.98 170.42-1.32 167.71 0.34 164.05 0.34L164.05 0.34Q163.22 0.34 162.31 0.2 161.41 0.05 160.58-0.24L160.58-0.24 160.58 2.83Q160.58 4.44 160.65 5.86 160.73 7.28 160.78 7.67L160.78 7.67 164.78 8.45 164.63 10.74ZM164.1-3.13L164.1-3.13Q165.61-3.13 166.76-3.83 167.9-4.54 168.59-6.1 169.27-7.67 169.22-10.11L169.22-10.11Q169.27-12.65 168.54-14.18 167.81-15.72 166.68-16.46 165.56-17.19 164.24-17.19L164.24-17.19Q163.22-17.19 162.27-16.67 161.31-16.16 160.58-15.28L160.58-15.28 160.58-4.15Q161.31-3.71 162.24-3.42 163.17-3.13 164.1-3.13Z" opacity="1" transform="matrix(1,0,0,1,0,0)" fill="#000" class="undefined-text-0" data-fill-palette-color="primary" id="text-0"></path></svg></g></svg></g></svg></g></svg></g><g></g></svg></g><defs></defs></svg><rect width="395.52" height="102.48067226890757" fill="none" stroke="none" visibility="hidden"></rect></g></svg></g></svg>